<svg xmlns="http://www.w3.org/2000/svg"  viewBox="0 0 48 48" width="48px" height="48px"><path fill="#d6e5e5" d="M9.706,41.301c9.73,0.203,18.96-0.311,28.337-0.702c1.443-0.06,2.649-1.141,2.853-2.572 c1.325-9.29,0.436-16.182,0.047-24.744c-0.014-0.317-0.052-2.679-0.142-4.722c-0.074-1.672-1.509-2.959-3.18-2.853 C30.304,6.174,18.63,6.529,10.229,6.369C9.211,6.35,8.097,6.363,7.315,7.015c-0.884,0.738-1.087,2.017-1.103,3.168 C6.058,21.904,6.217,26.472,6.058,38.05C6.058,38.05,5.9,41.221,9.706,41.301z"/><path fill="#bcbcbc" d="M40.9,38.03c-0.21,1.43-1.41,2.51-2.86,2.57l-5.01,0.21L25.5,34.5l6.56-12.23l9.23-2.68 C41.64,25.53,41.88,31.12,40.9,38.03z"/><path fill="#4b7bb2" d="M10.838,35.032c1.211,0.266,2.204-0.336,3.154-1.018c1.212-0.871,2.305-1.613,3.824-0.937 c1.316,0.586,2.405,1.543,3.77,2.045c1.383,0.509,2.921,0.617,4.226-0.156c0.553-0.328,0.051-1.192-0.505-0.863 c-2.848,1.686-5.313-1.56-7.855-2.211c-1.254-0.321-2.357,0.129-3.376,0.836c-0.849,0.589-1.847,1.588-2.973,1.34 C10.477,33.93,10.209,34.894,10.838,35.032L10.838,35.032z"/><path fill="#4b7bb2" d="M12.612,28.253c4.933-0.163,9.866-0.325,14.8-0.488c0.642-0.021,0.645-1.021,0-1 c-4.933,0.163-9.866,0.325-14.8,0.488C11.97,27.274,11.967,28.274,12.612,28.253L12.612,28.253z"/><path fill="#4b7bb2" d="M12.5,22c4.708,0,9.415,0,14.123,0c1.126,0,2.251,0,3.377,0c0.643,0,0.645-1,0-1 c-3.84,0-7.68,0-11.52,0c-1.993,0-3.987,0-5.98,0C11.857,21,11.855,22,12.5,22L12.5,22z"/><path fill="#4b7bb2" d="M12.5,16c6.331-0.004,12.673-0.33,19,0c0.643,0.034,0.641-0.967,0-1c-6.327-0.33-12.669-0.004-19,0 C11.857,15,11.855,16,12.5,16L12.5,16z"/><path fill="#373837" d="M41.208,18.411c-2,4-3.185,5.938-6.185,9.938c-1.12,1.49-3.793,5.531-5.653,5.701 c-0.53,0.05-1.11-0.02-1.57-0.28l-1.3,1.73l-1-1c0.44-0.72,0.87-1.57,1.4-2.47c-0.09-2.13,0.64-5.62,1.6-7.53c2-4,6-11,6-11 C37.09,15.56,38.208,15.411,41.208,18.411z"/><path fill="#373837" d="M40.415,7.045L38.85,6.3c-0.7,0.83-1.4,1.77-2.35,3.2c0,2,0,2,0,3c1.09,1.09,2.89,2.32,4.57,3.3 L40.415,7.045z"/><path d="M40.67,17.947c-0.663,1.33-1.27,2.691-1.964,4.006c-0.705,1.335-1.565,2.574-2.459,3.788 c-1.535,2.085-2.988,4.262-4.758,6.159c-0.913,0.979-1.987,2.163-3.437,1.439c-0.263-0.131-0.512-0.049-0.684,0.179 c-0.433,0.577-0.867,1.153-1.3,1.73c0.262-0.034,0.524-0.067,0.785-0.101c-0.333-0.333-0.667-0.667-1-1 c0.026,0.202,0.052,0.404,0.078,0.606c0.25-0.415,0.485-0.839,0.719-1.264c0.24-0.435,0.686-0.964,0.749-1.459 c0.046-0.356-0.006-0.746,0.017-1.108c0.031-0.496,0.087-0.99,0.164-1.481c0.274-1.753,0.738-3.482,1.542-5.068 c1.452-2.864,3.02-5.672,4.593-8.471c0.403-0.718,0.808-1.435,1.216-2.149c-0.262,0.034-0.524,0.067-0.785,0.101 c2.158,1.714,4.393,3.277,6.703,4.778c0.541,0.352,1.043-0.514,0.505-0.863c-2.239-1.454-4.41-2.96-6.501-4.621 c-0.245-0.195-0.611-0.204-0.785,0.101c-1.088,1.905-2.158,3.82-3.212,5.743c-1.63,2.972-3.391,5.887-4.071,9.247 c-0.195,0.965-0.339,1.95-0.381,2.935c-0.009,0.21,0.039,0.506-0.009,0.71c-0.058,0.244-0.27,0.492-0.391,0.709 c-0.309,0.554-0.609,1.112-0.936,1.656c-0.114,0.19-0.077,0.451,0.078,0.606c0.333,0.333,0.667,0.667,1,1 c0.249,0.249,0.595,0.152,0.785-0.101c0.433-0.577,0.867-1.153,1.3-1.73c-0.228,0.06-0.456,0.12-0.684,0.179 c1.331,0.664,2.499,0.34,3.572-0.556c1.108-0.924,2.025-2.087,2.906-3.222c0.813-1.048,1.58-2.129,2.361-3.201 c0.951-1.304,1.935-2.584,2.749-3.981c0.898-1.542,1.603-3.195,2.399-4.79C41.82,17.878,40.958,17.37,40.67,17.947z"/><path d="M38.496,5.946c-0.747,0.889-1.431,1.827-2.083,2.788C36.186,9.068,36.009,9.276,36,9.682c-0.007,0.291,0,0.584,0,0.875 c0,0.361,0,0.721,0,1.082c0,0.296-0.046,0.638,0.009,0.928c0.092,0.485,0.862,0.956,1.226,1.247c1.128,0.9,2.339,1.69,3.582,2.419 c0.556,0.326,1.06-0.538,0.505-0.863c-1.577-0.925-3.161-1.933-4.469-3.222c0.049,0.118,0.098,0.236,0.146,0.354 c0-0.829,0-1.659,0-2.488c0-0.688,0.64-1.312,1.035-1.858c0.372-0.514,0.761-1.014,1.168-1.5 C39.615,6.164,38.911,5.453,38.496,5.946L38.496,5.946z"/><path d="M40.418,37.897c-0.183,1.038-0.871,1.885-1.919,2.136c-0.379,0.091-0.786,0.08-1.174,0.097 c-1.263,0.053-2.526,0.106-3.789,0.159c-4.701,0.197-9.402,0.408-14.107,0.501c-2.824,0.055-5.649,0.072-8.473,0.032 c-1.533-0.022-3.45,0.032-4.168-1.628c-0.437-1.01-0.212-2.288-0.2-3.393c0.026-2.325,0.041-4.649,0.047-6.974 c0.01-4.1-0.006-8.2,0.016-12.3c0.007-1.243,0.016-2.485,0.028-3.728c0.012-1.239-0.098-2.554,0.133-3.777 c0.235-1.243,0.969-2.015,2.254-2.13c1.051-0.094,2.131-0.004,3.185,0.006c4.681,0.043,9.363-0.039,14.042-0.181 c2.233-0.068,4.465-0.152,6.696-0.257c1.031-0.048,2.063-0.101,3.093-0.159c0.919-0.052,1.95-0.268,2.811,0.148 c1.03,0.497,1.38,1.462,1.424,2.537c0.045,1.112,0.075,2.224,0.1,3.336c0.05,2.197,0.201,4.392,0.332,6.586 c0.294,4.947,0.515,9.896,0.123,14.845C40.763,35.139,40.611,36.521,40.418,37.897c-0.088,0.629,0.875,0.901,0.964,0.266 c0.752-5.366,0.818-10.745,0.543-16.149c-0.14-2.751-0.33-5.498-0.462-8.249c-0.041-0.858-0.049-1.717-0.073-2.575 c-0.031-1.143,0.108-2.49-0.26-3.587c-0.299-0.891-0.953-1.647-1.803-2.053c-0.963-0.46-1.966-0.322-2.993-0.263 c-2.201,0.126-4.403,0.227-6.605,0.311c-5.05,0.194-10.105,0.311-15.159,0.31c-1.144,0-2.289-0.007-3.433-0.024 c-1.112-0.016-2.313-0.138-3.368,0.291C5.374,7.15,5.707,10.25,5.685,12.341c-0.048,4.635-0.044,9.27-0.046,13.905 c-0.001,2.281-0.007,4.562-0.025,6.842c-0.011,1.371-0.025,2.742-0.043,4.113c-0.006,0.478-0.036,0.947,0.033,1.421 c0.172,1.171,0.875,2.198,1.952,2.714c0.992,0.475,2.074,0.466,3.15,0.482c1.483,0.023,2.965,0.03,4.448,0.024 c5.922-0.025,11.839-0.269,17.755-0.526c1.098-0.048,2.197-0.092,3.295-0.138c1.228-0.051,2.594,0.055,3.66-0.664 c0.811-0.546,1.348-1.39,1.517-2.35C41.493,37.534,40.529,37.263,40.418,37.897z"/></svg>